<?xml version="1.0" encoding="UTF-8"?>
<svg id="Layer_2" data-name="Layer 2" xmlns="http://www.w3.org/2000/svg" xmlns:xlink="http://www.w3.org/1999/xlink" viewBox="0 0 796.06 726">
  <defs>
    <style>
      .cls-1 {
        fill: none;
      }

      .cls-2, .cls-3, .cls-4 {
        font-family: InterTight-Regular, 'Inter Tight';
      }

      .cls-2, .cls-3, .cls-5, .cls-6 {
        fill: #1b1817;
      }

      .cls-2, .cls-4 {
        font-size: 20px;
      }

      .cls-3 {
        font-size: 25.61px;
      }

      .cls-7, .cls-4 {
        fill: #8e7250;
      }

      .cls-8 {
        letter-spacing: 0em;
      }

      .cls-9 {
        opacity: .13;
      }

      .cls-10 {
        fill: #fafaf9;
      }

      .cls-11 {
        letter-spacing: -.08em;
      }

      .cls-12 {
        letter-spacing: -.12em;
      }

      .cls-13 {
        letter-spacing: -.02em;
      }

      .cls-14 {
        letter-spacing: -.02em;
      }

      .cls-15 {
        letter-spacing: 0em;
      }

      .cls-6 {
        filter: url(#outer-glow-1);
        font-family: IvyOraDisplay-Medium, 'IvyOra Display';
        font-size: 40.24px;
        font-weight: 500;
      }

      .cls-16 {
        clip-path: url(#clippath);
      }
    </style>
    <filter id="outer-glow-1" filterUnits="userSpaceOnUse">
      <feOffset dx="0" dy="0"/>
      <feGaussianBlur result="blur" stdDeviation="14.45"/>
      <feFlood flood-color="#231f20" flood-opacity=".96"/>
      <feComposite in2="blur" operator="in"/>
      <feComposite in="SourceGraphic"/>
    </filter>
    <clipPath id="clippath">
      <rect class="cls-1" width="654.92" height="390.71"/>
    </clipPath>
  </defs>
  <g id="Layer_1-2" data-name="Layer 1">
    <rect class="cls-5" x="141.14" y="335.29" width="654.92" height="390.71"/>
    <g>
      <path class="cls-7" d="M468.6,599.76c-3.44.04-6.89-.59-10.1-1.93l-54.19-22.66c-9.59-4.01-15.55-12.96-15.55-23.36s5.96-19.35,15.55-23.36l54.19-22.66c3.21-1.34,6.66-1.98,10.1-1.93v-5.15c-4.12-.04-8.25.72-12.09,2.32l-54.19,22.66c-11.55,4.83-18.72,15.6-18.72,28.12s7.17,23.29,18.72,28.12l54.19,22.66c3.73,1.56,7.75,2.34,11.76,2.34.11,0,.22-.02.33-.02v-5.15Z"/>
      <path class="cls-7" d="M468.6,557.42c-3.44.05-6.89-.59-10.1-1.93l-54.19-22.66c-9.59-4.01-15.55-12.96-15.55-23.36s5.96-19.35,15.55-23.36l54.19-22.66c3.21-1.34,6.66-1.98,10.1-1.93v-5.15c-4.12-.04-8.25.72-12.09,2.32l-54.19,22.66c-11.55,4.83-18.72,15.6-18.72,28.12s7.17,23.29,18.72,28.12l54.19,22.66c3.74,1.56,7.75,2.34,11.76,2.34.11,0,.22-.02.33-.02v-5.15Z"/>
      <path class="cls-7" d="M468.6,599.76c3.44.04,6.89-.59,10.1-1.93l54.19-22.66c9.59-4.01,15.55-12.96,15.55-23.36,0-10.4-5.96-19.35-15.55-23.36l-54.19-22.66c-3.21-1.34-6.66-1.98-10.1-1.93v-5.15c4.12-.04,8.25.72,12.09,2.32l54.19,22.66c11.55,4.83,18.72,15.6,18.72,28.12,0,12.51-7.17,23.29-18.72,28.12l-54.19,22.66c-3.73,1.56-7.75,2.34-11.76,2.34-.11,0-.22-.02-.33-.02v-5.15Z"/>
      <path class="cls-7" d="M468.6,557.42c3.44.05,6.89-.59,10.1-1.93l54.19-22.66c9.59-4.01,15.55-12.96,15.55-23.36,0-10.4-5.96-19.35-15.55-23.36l-54.19-22.66c-3.21-1.34-6.66-1.98-10.1-1.93v-5.15c4.12-.04,8.25.72,12.09,2.32l54.19,22.66c11.55,4.83,18.72,15.6,18.72,28.12,0,12.51-7.17,23.29-18.72,28.12l-54.19,22.66c-3.74,1.56-7.75,2.34-11.76,2.34-.11,0-.22-.02-.33-.02v-5.15Z"/>
    </g>
    <rect class="cls-10" width="654.92" height="390.71"/>
    <g>
      <path class="cls-7" d="M69.15,92.64c-.9.01-1.79-.15-2.63-.5l-14.1-5.9c-2.5-1.04-4.05-3.37-4.05-6.08s1.55-5.04,4.05-6.08l14.1-5.9c.83-.35,1.73-.51,2.63-.5v-1.34c-1.07-.01-2.15.19-3.15.6l-14.1,5.9c-3,1.26-4.87,4.06-4.87,7.32s1.87,6.06,4.87,7.32l14.1,5.9c.97.41,2.02.61,3.06.61.03,0,.06,0,.09,0v-1.34Z"/>
      <path class="cls-7" d="M69.15,81.62c-.9.01-1.79-.15-2.63-.5l-14.1-5.9c-2.5-1.04-4.05-3.37-4.05-6.08s1.55-5.04,4.05-6.08l14.1-5.9c.83-.35,1.73-.51,2.63-.5v-1.34c-1.07-.01-2.15.19-3.15.6l-14.1,5.9c-3,1.26-4.87,4.06-4.87,7.32s1.87,6.06,4.87,7.32l14.1,5.9c.97.41,2.02.61,3.06.61.03,0,.06,0,.09,0v-1.34Z"/>
      <path class="cls-7" d="M69.15,92.64c.9.01,1.79-.15,2.63-.5l14.1-5.9c2.5-1.04,4.05-3.37,4.05-6.08,0-2.71-1.55-5.04-4.05-6.08l-14.1-5.9c-.83-.35-1.73-.51-2.63-.5v-1.34c1.07-.01,2.15.19,3.15.6l14.1,5.9c3,1.26,4.87,4.06,4.87,7.32,0,3.26-1.87,6.06-4.87,7.32l-14.1,5.9c-.97.41-2.02.61-3.06.61-.03,0-.06,0-.09,0v-1.34Z"/>
      <path class="cls-7" d="M69.15,81.62c.9.01,1.79-.15,2.63-.5l14.1-5.9c2.5-1.04,4.05-3.37,4.05-6.08s-1.55-5.04-4.05-6.08l-14.1-5.9c-.83-.35-1.73-.51-2.63-.5v-1.34c1.07-.01,2.15.19,3.15.6l14.1,5.9c3,1.26,4.87,4.06,4.87,7.32,0,3.26-1.87,6.06-4.87,7.32l-14.1,5.9c-.97.41-2.02.61-3.06.61-.03,0-.06,0-.09,0v-1.34Z"/>
    </g>
    <text class="cls-6" transform="translate(99.55 90.01)"><tspan class="cls-15" x="0" y="0">B</tspan><tspan class="cls-8" x="24.51" y="0">ail</tspan><tspan class="cls-14" x="63.42" y="0">e</tspan><tspan class="cls-11" x="82.13" y="0">y</tspan><tspan class="cls-12" x="99.31" y="0">W</tspan><tspan x="136.85" y="0">eile</tspan><tspan class="cls-13" x="196.53" y="0">r</tspan></text>
    <text class="cls-3" transform="translate(47.03 219.79)"><tspan x="0" y="0">Don Bailey</tspan></text>
    <text class="cls-4" transform="translate(47.03 246.29)"><tspan x="0" y="0">Co-Founder</tspan></text>
    <text class="cls-2" transform="translate(47.03 293.65)"><tspan x="0" y="0">800.555.1212</tspan><tspan x="0" y="22">don@baileyweiler.com</tspan><tspan x="0" y="44">@donweiler</tspan></text>
    <g class="cls-9">
      <g class="cls-16">
        <g>
          <path class="cls-7" d="M570.52,435.66c-7.73.1-15.49-1.32-22.7-4.34l-121.77-50.92c-21.55-9.01-34.94-29.12-34.94-52.49s13.39-43.48,34.94-52.49l121.77-50.92c7.2-3.01,14.96-4.44,22.7-4.34v-11.57c-9.26-.1-18.54,1.62-27.17,5.22l-121.78,50.92c-25.95,10.85-42.06,35.06-42.06,63.18s16.11,52.33,42.06,63.18l121.78,50.92c8.39,3.51,17.4,5.26,26.41,5.26.25,0,.5-.03.75-.04v-11.58Z"/>
          <path class="cls-7" d="M570.52,340.51c-7.73.1-15.49-1.32-22.7-4.34l-121.78-50.92c-21.55-9.01-34.94-29.12-34.94-52.49s13.39-43.48,34.94-52.49l121.78-50.92c7.2-3.01,14.96-4.44,22.7-4.34v-11.57c-9.26-.1-18.54,1.62-27.17,5.22l-121.77,50.92c-25.95,10.85-42.06,35.06-42.06,63.18s16.11,52.33,42.06,63.18l121.77,50.92c8.39,3.51,17.41,5.26,26.42,5.26.25,0,.5-.03.75-.04v-11.58Z"/>
          <path class="cls-7" d="M570.52,435.66c7.73.1,15.49-1.32,22.7-4.34l121.77-50.92c21.55-9.01,34.94-29.12,34.94-52.49,0-23.37-13.39-43.48-34.94-52.49l-121.77-50.92c-7.2-3.01-14.96-4.44-22.7-4.34v-11.57c9.26-.1,18.54,1.62,27.17,5.22l121.78,50.92c25.95,10.85,42.06,35.06,42.06,63.18,0,28.12-16.11,52.33-42.06,63.18l-121.78,50.92c-8.39,3.51-17.4,5.26-26.41,5.26-.25,0-.5-.03-.75-.04v-11.58Z"/>
          <path class="cls-7" d="M570.52,340.51c7.73.1,15.49-1.32,22.7-4.34l121.78-50.92c21.55-9.01,34.94-29.12,34.94-52.49,0-23.37-13.39-43.48-34.94-52.49l-121.78-50.92c-7.2-3.01-14.96-4.44-22.7-4.34v-11.57c9.26-.1,18.54,1.62,27.17,5.22l121.77,50.92c25.95,10.85,42.06,35.06,42.06,63.18,0,28.12-16.11,52.33-42.06,63.18l-121.77,50.92c-8.39,3.51-17.41,5.26-26.42,5.26-.25,0-.5-.03-.75-.04v-11.58Z"/>
        </g>
      </g>
    </g>
  </g>
</svg>