<?xml version="1.0" encoding="UTF-8"?>
<svg id="Layer_2" data-name="Layer 2" xmlns="http://www.w3.org/2000/svg" viewBox="0 0 353.03 73.69">
  <defs>
    <style>
      .cls-1 {
        fill: #f7f7f2;
        font-family: IvyOraDisplay-Medium, 'IvyOra Display';
        font-size: 52.98px;
        font-weight: 500;
      }

      .cls-2, .cls-3 {
        fill: #8e7250;
      }

      .cls-4 {
        letter-spacing: -.08em;
      }

      .cls-5 {
        letter-spacing: -.12em;
      }

      .cls-6 {
        letter-spacing: -.02em;
      }

      .cls-7 {
        letter-spacing: -.02em;
      }

      .cls-8 {
        letter-spacing: 0em;
      }

      .cls-3 {
        font-family: Raleway-SemiBold, Raleway;
        font-size: 16.19px;
        font-weight: 600;
        letter-spacing: .5em;
      }
    </style>
  </defs>
  <g id="Layer_1-2" data-name="Layer 1">
    <g>
      <path class="cls-2" d="M32.38,54.63c-1.31.02-2.63-.22-3.85-.74l-20.64-8.63c-3.65-1.53-5.92-4.94-5.92-8.9s2.27-7.37,5.92-8.9l20.64-8.63c1.22-.51,2.54-.75,3.85-.74v-1.96c-1.57-.02-3.14.27-4.61.89L7.13,25.65c-4.4,1.84-7.13,5.94-7.13,10.71s2.73,8.87,7.13,10.71l20.64,8.63c1.42.59,2.95.89,4.48.89.04,0,.09,0,.13,0v-1.96Z"/>
      <path class="cls-2" d="M32.38,38.5c-1.31.02-2.63-.22-3.85-.74L7.89,29.13c-3.65-1.53-5.92-4.94-5.92-8.9s2.27-7.37,5.92-8.9L28.53,2.7c1.22-.51,2.54-.75,3.85-.74V0c-1.57-.02-3.14.27-4.61.89L7.13,9.52C2.73,11.36,0,15.46,0,20.23s2.73,8.87,7.13,10.71l20.64,8.63c1.42.59,2.95.89,4.48.89.04,0,.09,0,.13,0v-1.96Z"/>
      <path class="cls-2" d="M32.38,54.63c1.31.02,2.63-.22,3.85-.74l20.64-8.63c3.65-1.53,5.92-4.94,5.92-8.9s-2.27-7.37-5.92-8.9l-20.64-8.63c-1.22-.51-2.54-.75-3.85-.74v-1.96c1.57-.02,3.14.27,4.61.89l20.64,8.63c4.4,1.84,7.13,5.94,7.13,10.71,0,4.77-2.73,8.87-7.13,10.71l-20.64,8.63c-1.42.59-2.95.89-4.48.89-.04,0-.09,0-.13,0v-1.96Z"/>
      <path class="cls-2" d="M32.38,38.5c1.31.02,2.63-.22,3.85-.74l20.64-8.63c3.65-1.53,5.92-4.94,5.92-8.9,0-3.96-2.27-7.37-5.92-8.9L36.23,2.7c-1.22-.51-2.54-.75-3.85-.74V0c1.57-.02,3.14.27,4.61.89l20.64,8.63c4.4,1.84,7.13,5.94,7.13,10.71,0,4.77-2.73,8.87-7.13,10.71l-20.64,8.63c-1.42.59-2.95.89-4.48.89-.04,0-.09,0-.13,0v-1.96Z"/>
    </g>
    <text class="cls-1" transform="translate(74.4 48.51)"><tspan class="cls-8" x="0" y="0">B</tspan><tspan x="32.27" y="0">ail</tspan><tspan class="cls-7" x="83.5" y="0">e</tspan><tspan class="cls-4" x="108.13" y="0">y</tspan><tspan class="cls-5" x="130.76" y="0">W</tspan><tspan x="180.19" y="0">eile</tspan><tspan class="cls-6" x="258.76" y="0">r</tspan></text>
    <text class="cls-3" transform="translate(257.16 70.08)"><tspan x="0" y="0">HOMES</tspan></text>
  </g>
</svg>