<?xml version="1.0" encoding="utf-8"?>
<!-- Generator: Adobe Illustrator 25.4.1, SVG Export Plug-In . SVG Version: 6.00 Build 0)  -->
<svg version="1.1" id="Layer_1" xmlns="http://www.w3.org/2000/svg" xmlns:xlink="http://www.w3.org/1999/xlink" x="0px" y="0px"
	 viewBox="0 0 886.6 118.9" style="enable-background:new 0 0 886.6 118.9;" xml:space="preserve">
<style type="text/css">
	.st0{fill:#E54F2D;}
	.st1{fill:#FFFFFF;}
	.st2{fill:#959195;}
</style>
<g>
	<g>
		<path class="st0" d="M22.1,77.7c-5-0.3-9.7-1.6-16-8.1c0.9,23,29.8,31.5,29.8,31.5s-0.5-10.3-0.5-10.4
			C25,88.3,22.1,77.7,22.1,77.7"/>
		<path class="st0" d="M16.1,53.5c0,0,15.6-6.5,16.2-21.2C32.8,21.9,17.1,9.9,10.2,5c0.6,7.7-4.2,13.8-4.1,22.7
			C6.3,43.5,13.3,51.1,16.1,53.5"/>
		<path class="st0" d="M80.6,77.7c0,0-2.9,10.5-13.4,13c0,0-0.5,10.4-0.5,10.4s28.9-8.5,29.8-31.5C90.3,76.1,85.6,77.5,80.6,77.7"/>
		<path class="st0" d="M86.6,53.5c2.8-2.4,9.8-10,10-25.8c0.1-8.8-4.7-15-4.1-22.7c-6.9,4.9-22.6,16.9-22.2,27.3
			C71,47,86.6,53.5,86.6,53.5"/>
		<path class="st0" d="M58.4,103.8c-1,3.4-6.9,6.5-7,6.5c-0.1,0-6-3.2-7-6.5l-0.4-5.1c0,0,3.8,1.2,7.4,1.2c0,0,0,0,0,0c0,0,0,0,0,0
			c3.6,0,7.4-1.2,7.4-1.2L58.4,103.8z M77.1,75.2C76,73,74,72,72.4,71.4c-0.4,1-1.2,2.2-2.2,3.1c-1.5,1.3-3.9,1.7-5.7,1.7
			c-1.9,0-3.2-0.5-3.2-0.5c-0.4-2.6-0.7-6.7,3-8.1c4.8-1.9,13.1-0.4,16.4,5.7c3.7,0.7,12.9-4.8,16.7-10.9
			c-6.4-0.5-20.3-8.7-24.3-13.6c-4.2-5.1-7-10.1-7-15c0-3.6,0.8-6.4,2.6-9.3c-4.8,0.7-30,0.7-34.8,0c1.9,2.9,2.6,5.6,2.6,9.3
			c0,4.9-2.8,9.9-7,15c-4,4.9-17.9,13.1-24.3,13.6c3.8,6.2,13,11.6,16.7,10.9c3.2-6.1,11.6-7.6,16.4-5.7c3.7,1.5,3.5,5.6,3,8.1
			c0,0-1.4,0.6-3.2,0.5c-1.8,0-4.2-0.4-5.7-1.7c-1-0.8-1.8-2.1-2.2-3.1c-1.6,0.6-3.7,1.6-4.8,3.8c0.7,2.4,3.2,9.7,13.4,12l0.6,0.1
			l0.1,0.6c0,0.4,0.1,13.6,0.8,16c1.7,5.6,10.8,10.9,10.9,10.9v0l0,0v0v0c0.1,0,9.2-5.3,10.9-10.9c0.7-2.3,0.8-15.6,0.8-16l0.1-0.6
			l0.6-0.1C73.9,84.9,76.5,77.6,77.1,75.2"/>
	</g>
	<path class="st1" d="M126.1,83.2c2.6-0.3,4.3-0.8,4.9-1.4c0.6-0.7,1-2.5,1-5.4v-29c0-2.4-0.4-3.9-1.1-4.7c-0.7-0.7-2.3-1.2-4.8-1.4
		v-1.2h35.7l0.2,9.6h-1.9c-0.5-3.1-1.3-5-2.6-5.8c-1.3-0.8-3.8-1.2-7.5-1.2h-9.2c-0.9,0-1.5,0.2-1.7,0.5c-0.3,0.3-0.4,0.9-0.4,1.8
		v14.9h9.7c2.9,0,4.7-0.4,5.5-1.3c0.8-0.8,1.4-2.6,1.9-5.1h1.6v15.5h-1.6c-0.5-2.6-1.1-4.3-1.9-5.2c-0.8-0.8-2.6-1.3-5.4-1.3h-9.7
		v14.6c0,2.5,0.4,4,1.1,4.7c0.8,0.7,2.4,1.1,4.9,1.3v1.2h-18.7V83.2z"/>
	<path class="st1" d="M185.9,45.1c4.1-3.9,9.2-5.9,15.2-5.9c6,0,11.1,2,15.2,6c4.5,4.3,6.7,10,6.7,17.2c0,7.3-2.3,13-6.9,17.3
		c-4.1,3.8-9.1,5.8-15,5.8c-6.3,0-11.5-2.1-15.6-6.4c-4.2-4.3-6.3-9.9-6.3-16.7C179.2,55.1,181.4,49.4,185.9,45.1 M190.9,77.9
		c2.8,3.4,6.2,5.1,10.2,5.1c4,0,7.3-1.6,10.1-4.9c2.8-3.3,4.2-8.5,4.2-15.7c0-7.3-1.4-12.6-4.3-15.8c-2.8-3.2-6.2-4.9-10.1-4.9
		c-4,0-7.4,1.7-10.2,5.1c-2.8,3.4-4.2,8.6-4.2,15.6C186.8,69.3,188.1,74.5,190.9,77.9"/>
	<path class="st1" d="M236.7,83.2c1.8-0.2,3.2-0.7,4.1-1.4c0.9-0.8,2.8-2.8,5.5-6.3l10.3-12.8l-7.3-10.8c-3.2-4.7-5.4-7.6-6.7-8.7
		c-1.3-1.1-3-1.8-5.2-1.8v-1.2h20.1v1.2c-1.9,0.1-3.2,0.2-3.8,0.4c-0.9,0.3-1.3,0.9-1.3,1.9c0,0.6,0.2,1.3,0.7,2.2
		c0.2,0.4,0.5,0.9,0.9,1.5l6.9,10l7.5-9.1c1.1-1.3,1.9-2.4,2.2-3.2c0.2-0.5,0.4-0.9,0.4-1.3c0-1-0.5-1.6-1.4-2
		c-0.6-0.2-1.7-0.3-3.2-0.3v-1.2h15.9v1.2c-1.8,0-3.2,0.3-4.2,0.9c-1.5,0.9-3.5,2.7-5.8,5.5l-9.7,12.1l12.7,18.4
		c1.4,2,2.5,3.2,3.4,3.8c0.9,0.5,2.2,0.9,4,1.2v1.2H263v-1.2c1.9,0,3.2-0.2,4-0.5c0.7-0.3,1.1-0.8,1.1-1.6c0-0.7-0.5-1.9-1.5-3.5
		c-1-1.6-3.7-5.7-8.2-12.3l-7.9,9.9c-1.1,1.5-1.9,2.5-2.4,3.2c-0.7,1.1-1.1,1.9-1.1,2.4c0,1,0.6,1.6,1.7,2c0.7,0.2,1.8,0.4,3.4,0.5
		v1.2h-15.5V83.2z"/>
	<path class="st1" d="M305,83.2c2.5-0.3,4.1-0.7,4.8-1.3c0.7-0.6,1.1-2.2,1.1-4.7V47.4c0-2.4-0.4-3.9-1.1-4.7
		c-0.7-0.7-2.3-1.2-4.8-1.4v-1.2h18.9v1.2c-2.5,0.1-4.1,0.5-5,1.2c-0.8,0.7-1.3,2.1-1.3,4.3v32.2c0,0.7,0.1,1.3,0.4,1.7
		c0.3,0.4,0.8,0.7,1.7,0.8c0.5,0.1,1,0.1,1.6,0.1c0.6,0,1.6,0,3.1,0c6,0,10-0.5,12.1-1.5c2.1-1,4.1-3.5,6.1-7.5h1.7L341,84.4h-36
		V83.2z"/>
	<path class="st1" d="M359.5,84.4v-1.2c1.7-0.2,3-0.8,3.9-1.9c0.9-1.1,2.3-4.1,4.4-9l14-32.9h1.3l16.7,38c1.1,2.5,2,4.1,2.7,4.7
		c0.7,0.6,1.8,1,3.4,1.2v1.2h-17v-1.2c2-0.2,3.2-0.4,3.8-0.6c0.6-0.2,0.8-0.9,0.8-1.8c0-0.3-0.1-0.9-0.3-1.7
		c-0.2-0.8-0.5-1.7-0.9-2.6l-2.7-6.4h-17.6c-1.7,4.4-2.8,7.1-3.1,8c-0.3,1-0.5,1.7-0.5,2.3c0,1.1,0.5,1.9,1.4,2.3
		c0.6,0.3,1.6,0.5,3.2,0.6v1.2H359.5z M388.3,67.2l-7.7-18.4l-7.7,18.4H388.3z"/>
	<path class="st1" d="M421.1,83.2c2.8-0.3,4.5-0.9,5.3-1.9c0.8-1,1.2-3.2,1.2-6.7V45l-0.9-1.1c-1-1.2-1.8-1.9-2.5-2.1
		c-0.7-0.3-1.7-0.4-3.1-0.5v-1.2h11.4l25.9,32V49.9c0-3.7-0.5-6-1.6-7.1c-0.7-0.7-2.3-1.2-4.8-1.4v-1.2h15.7v1.2
		c-2.6,0.3-4.3,0.9-5.1,1.9c-0.9,1-1.3,3.2-1.3,6.7v35.2h-1.1l-29.6-36.7v26.1c0,3.7,0.5,6,1.6,7.2c0.7,0.7,2.3,1.2,4.7,1.5v1.2
		h-15.7V83.2z"/>
	<path class="st1" d="M486.6,83.2c2.5-0.3,4.1-0.7,4.8-1.3c0.7-0.6,1.1-2.2,1.1-4.7V47.4c0-2.4-0.4-3.9-1.1-4.7
		c-0.7-0.7-2.3-1.2-4.8-1.4v-1.2h35.6l0.2,9.6h-1.7c-0.6-3-1.4-4.9-2.6-5.7c-1.1-0.9-3.7-1.3-7.6-1.3h-9.1c-1,0-1.6,0.2-1.8,0.5
		c-0.2,0.3-0.3,0.9-0.3,1.8v14.9h10.3c2.9,0,4.7-0.4,5.5-1.3c0.8-0.8,1.4-2.6,1.9-5.1h1.6v15.5H517c-0.5-2.6-1.1-4.3-1.9-5.2
		c-0.8-0.8-2.6-1.3-5.4-1.3h-10.3v16.6c0,1.3,0.4,2.1,1.3,2.4c0.8,0.2,3.4,0.4,7.5,0.4c4.5,0,7.9-0.5,10.1-1.5
		c2.2-1,4.1-3.4,5.8-7.2h1.9l-3,11.3h-36.2V83.2z"/>
	<g>
		<path class="st2" d="M557.8,40.3h5.1v20.2h26.3V40.3h5.1v45.5h-5.1V65.3H563v20.5h-5.1V40.3z"/>
		<path class="st2" d="M626.1,63.2v-0.1c0-12.6,9.4-23.5,23.3-23.5c13.9,0,23.2,10.9,23.2,23.4v0.1c0,12.6-9.4,23.5-23.3,23.5
			C635.4,86.6,626.1,75.8,626.1,63.2z M667.2,63.2v-0.1c0-10.3-7.5-18.8-18-18.8c-10.4,0-17.8,8.3-17.8,18.7v0.1
			c0,10.3,7.5,18.8,18,18.8C659.8,81.9,667.2,73.5,667.2,63.2z"/>
		<path class="st2" d="M704.2,40.3h5.2L726,65.2l16.6-24.8h5.2v45.5h-5.1V49l-16.6,24.4h-0.3L709.2,49v36.8h-5V40.3z"/>
		<path class="st2" d="M781.5,40.3h32.9V45h-27.8v15.5h24.8v4.7h-24.8v15.9h28.1v4.7h-33.2V40.3z"/>
		<path class="st2" d="M842.9,79.2l3.2-3.8c4.7,4.3,9.3,6.4,15.6,6.4c6.1,0,10.1-3.3,10.1-7.7V74c0-4.2-2.3-6.6-11.8-8.7
			c-10.5-2.3-15.3-5.7-15.3-13.1v-0.1c0-7.2,6.3-12.4,15-12.4c6.6,0,11.4,1.9,16,5.6l-3,4c-4.2-3.4-8.5-4.9-13.1-4.9
			c-5.9,0-9.7,3.3-9.7,7.4v0.1c0,4.3,2.3,6.7,12.4,8.8c10.1,2.2,14.8,5.9,14.8,12.9v0.1c0,7.8-6.5,12.9-15.5,12.9
			C854.3,86.5,848.4,84.1,842.9,79.2z"/>
	</g>
</g>
</svg>
